<svg width="96" height="33" fill="none" xmlns="http://www.w3.org/2000/svg"><path fill-rule="evenodd" clip-rule="evenodd" d="M19 16h-4l2-1h7l-1 1v7l-10 1C6 24 0 19 0 12 0 6 4 0 13 0c5 0 7 1 9 3l-3 3V4c-1-2-3-3-7-3-5 0-8 4-8 10s4 12 11 12l4-1v-6Zm14-8c-5 0-8 4-8 8 0 3 3 7 8 7s8-4 8-8c0-3-3-7-8-7Zm0 1c3 0 5 5 5 8 0 5-4 5-4 5l-4-2-2-6 2-4 3-1Zm34-1c-4 0-6 3-6 6s1 5 5 5h1l-1 2 1 2c-6 0-8 3-8 5 0 3 2 5 7 5s8-3 8-6c0-2-1-4-4-6l-1-1 1-1 1-1 2-4-2-5h2l1-1h-7Zm-1 1 2 1 2 5c0 3-2 3-3 3h-1c-1-1-3-3-3-6 0-2 2-3 3-3Zm3 15h-1c-5 0-6 2-6 4s2 4 5 4 5-2 5-4l-2-3-1-1Zm12-1h-6l1-1V1h-2l1-1h6l-1 1-1 1v19l1 1h2l-1 1Zm1-8c0-4 4-7 7-7 4 0 6 2 6 4l-10 4c1 3 4 5 7 5l4-1-3 2-3 1c-5 0-8-4-8-8Zm10-3c0-1-1-3-3-3s-4 1-4 4v2l6-3h1ZM51 8c-5 0-8 4-8 8 0 3 3 7 8 7s8-4 8-8c0-3-3-7-8-7Zm0 1c3 0 5 5 5 8 0 5-4 5-4 5l-4-2-2-6 2-4 3-1Z" fill="#fff"/></svg>