<svg width="140" height="27" fill="none" xmlns="http://www.w3.org/2000/svg"><path fill-rule="evenodd" clip-rule="evenodd" d="M39 0H23l-1 2c7 0 12 5 12 11s-5 11-11 12v2h16l3-1 1-3V4c0-2-2-4-4-4ZM9 13c0 5 4 10 8 11v3H4c-2 0-4-2-4-4V4c0-2 2-4 4-4h13l-1 2c-4 3-7 7-7 11Zm123 3h-8v11h8c2 0 2-3 2-4v-3c0-2 0-4-2-4Zm0 7v-3l-1-1h-5v6h5l1-2Zm-11 0v-3c0-2-1-4-3-4h-7v11h3v-3h4l1 1v2h2v-4Zm-7-1h4l1-2-1-1h-4v3Zm-9-6h-3l-4 9v2h1l1-2h6l1 2h3l-5-11Zm-2 2-2 5h4l-2-5Zm-16 9V16h2v4h1l4-4h3l-5 5 5 5v1h-2l-5-4h-1v4h-2Zm-13-3v-5l2-3h6c2 0 3 2 3 3v1h-3l-1-1h-4l-1 1v4l1 1h4l1-1h3c0 2-2 3-3 3h-6c-1 0-2-1-2-3Zm-6-8h-3l-5 11h3l1-2h6v2h3l-5-11Zm-1 2-2 5h4l-2-5Zm-10-2h-7v11h2v-3h5c2 0 4-1 4-4s-2-4-4-4Zm-5 6h5l1-2-1-1h-5v3ZM50 0v11h2V7h7v4h2V0h-2v4h-7V0h-2Zm15 0h8v2h-7v2h6v3h-6v2h7v2h-8l-2-2V2l2-2Zm27 0v9l2 2h7V9h-6V0h-3Zm28 2v9h-3V2h-3V0h9v2h-3Zm11 9V2h3V0h-9v2h3v9h3ZM104 0h8v2h-7v2h6v3h-6v2h7v2h-8l-2-2V2l2-2ZM86 11l-2-2-1-5-3 7h-1l-2-2-3-9h3l2 7 2-7h3l2 7 2-7h3l-4 11h-1Zm52-11 1 1 1 1-1 2-1 1-2-1-1-2 1-1 2-1Zm1 4-1 1-2-1V1l2-1 1 1 1 1-1 2ZM18 0l-6 18h3l3-9h1v1l-3 8h3l3-8-2-2h-2l3-8h-3Zm6 8h5c1 0 3 1 2 3l-2 5c-1 1-1 2-3 2h-2l-3 8h-3l6-18Zm4 2-2 6-1 1h-1l3-8h1v1Z" fill="#fff"/></svg>