<svg width="135" height="38" fill="none" xmlns="http://www.w3.org/2000/svg"><g fill="#36536B"><path fill-rule="evenodd" clip-rule="evenodd" d="M134.7 8.6V5.3h-1.3v3.3h1.3ZM50.5 33.9v-7.8h.1c.6.8 1.3 1.4 2.1 1.8.9.5 1.8.7 2.9.7 1.2 0 2.2-.3 3.2-.7.9-.5 1.6-1.1 2.2-2 .6-.7 1-1.6 1.4-2.7a12.6 12.6 0 0 0 0-6.6c-.3-1-.8-2-1.4-2.8a7 7 0 0 0-2.3-2c-1-.4-2-.6-3.4-.6-1 0-2 .2-2.8.6a5 5 0 0 0-2.1 2v-2.2H46v22.3h4.5Zm3.9-8.7c-.8 0-1.4-.2-1.9-.5s-1-.7-1.2-1.1a5 5 0 0 1-.7-1.7 9.2 9.2 0 0 1 0-4 5 5 0 0 1 .6-1.7c.3-.5.7-.9 1.2-1.2.5-.3 1.2-.4 2-.4a3.4 3.4 0 0 1 3 1.7L58 18a9.2 9.2 0 0 1 0 3.9c-.1.6-.4 1.2-.7 1.7-.3.4-.7.8-1.2 1.1-.5.3-1.1.5-1.8.5Zm18.8 3a10.3 10.3 0 0 1-5.2 0 5 5 0 0 1-1.8-.8c-.5-.4-.9-1-1.2-1.6-.3-.6-.4-1.3-.4-2.2 0-1 .2-1.7.5-2.3.3-.6.8-1 1.3-1.4.5-.4 1.1-.7 1.8-.9a19.2 19.2 0 0 1 4-.6L74 18a3 3 0 0 0 1.2-.6c.3-.2.4-.6.4-1 0-.6 0-1-.2-1.2l-.7-.7c-.2-.2-.5-.3-.9-.3l-1.1-.1c-1 0-1.6.2-2.1.6-.6.4-.9 1-1 1.9h-4.5c0-1 .3-2 .8-2.7.5-.7 1-1.2 1.8-1.7.7-.4 1.5-.7 2.5-.9a14 14 0 0 1 5.2 0c.9 0 1.6.3 2.4.6.7.4 1.2.8 1.7 1.4.4.6.7 1.5.7 2.5v10.7l.5 1.5h-4.6a6.5 6.5 0 0 1-.3-1.6 6 6 0 0 1-2.6 1.6ZM72 25.5l-1-.1-1-.4-.5-.6c-.2-.3-.3-.7-.3-1 0-.5.1-.8.3-1.1.1-.3.3-.5.6-.7l.8-.4a8.2 8.2 0 0 1 2.1-.5 14.2 14.2 0 0 0 2-.4c.3 0 .5-.2.7-.4v2.7L75 24a3 3 0 0 1-1 1.1 4 4 0 0 1-2.2.5ZM89.5 33c-.8.5-2 .8-3.6.8a20 20 0 0 1-2.8-.1V30a280 280 0 0 0 2.7.2c.6 0 1-.3 1.3-.7.3-.4.4-.9.4-1.4 0-.3 0-.7-.2-1l-5.8-15.5h4.9L90 22.9l3.7-11.3h4.7l-7 18.6a5.6 5.6 0 0 1-2 2.9Zm15-4.6c.9 0 1.6 0 2.3-.3a6.6 6.6 0 0 0 3-2c.4-.4.7-.8.9-1.3v.8l.1 1 .4.7c.1.3.3.4.6.6l1.2.1h1V27h-1a1 1 0 0 1-.6 0 1 1 0 0 1-.3-.6l-.1-.6V15.5c0-1.2-.5-2.2-1.4-3-.9-.8-2.3-1.2-4.3-1.2a7 7 0 0 0-4.6 1.4c-1 .9-1.7 2.2-1.8 4h1.3c0-1.4.5-2.5 1.5-3.2.9-.8 2-1.1 3.5-1.1.9 0 1.6 0 2.1.2l1.4.7a2.8 2.8 0 0 1 1.1 2.3l-.1 1.4c0 .4-.2.7-.5 1l-1.1.6-2 .3-2 .1-2 .3c-.7.2-1.4.4-2 .8-.6.3-1 .8-1.4 1.4-.4.6-.6 1.4-.6 2.4 0 1.6.5 2.7 1.4 3.5 1 .7 2.3 1.1 4 1.1Zm-3-2c.7.7 1.8 1 3.1 1a5.8 5.8 0 0 0 5.2-2.5c.4-.7.7-1.3.8-1.9l.2-1.2v-3.1c-.3.4-.8.6-1.4.7-.6.2-1.3.3-2 .3l-2 .2c-.7 0-1.3.2-1.9.3-.6.1-1.1.3-1.6.6s-.9.6-1.2 1.1c-.2.5-.4 1.1-.4 1.9 0 1.2.4 2.1 1.2 2.7ZM117 34v-9.3a5.2 5.2 0 0 0 2.4 3c1 .5 2.3.8 3.7.8 1.2 0 2.3-.2 3.2-.6 1-.4 1.7-1 2.3-1.8.7-.7 1.1-1.6 1.4-2.7a12.5 12.5 0 0 0 0-6.7c-.3-1-.7-2-1.4-2.8a6.7 6.7 0 0 0-5.5-2.6 6.4 6.4 0 0 0-4.2 1.5c-.5.4-.9.8-1.2 1.3l-.6 1.4v-3.8h-1.3V34h1.2Zm3.2-7.2a6 6 0 0 0 2.9.7 5.5 5.5 0 0 0 4.7-2.2c.4-.8.8-1.5 1-2.5a11 11 0 0 0 0-5.6c-.2-1-.5-1.7-1-2.4a5.6 5.6 0 0 0-2-1.8c-.7-.4-1.6-.6-2.7-.6s-2 .2-2.8.6c-.8.4-1.4 1-1.9 1.7s-.8 1.5-1 2.4a12.3 12.3 0 0 0 0 5.7c.1.9.4 1.7 1 2.4a5 5 0 0 0 1.8 1.6Zm13.1-15.1h1.3V28h-1.3V11.7Z"/><circle cx="19.1" cy="5" r="3" transform="rotate(45 19.1 5)"/><circle cx="26.2" cy="12.1" r="3" transform="rotate(45 26.2 12)"/><circle cx="33.3" cy="19.1" r="3" transform="rotate(45 33.3 19.1)"/><circle cx="12.1" cy="12.1" r="3" transform="rotate(45 12 12)"/><circle opacity=".5" cx="19.1" cy="19.1" r="3" transform="rotate(45 19.1 19.1)"/><circle opacity=".5" cx="26.2" cy="26.2" r="3" transform="rotate(45 26.2 26.2)"/><circle cx="5" cy="19.1" r="3" transform="rotate(45 5 19.1)"/><circle opacity=".5" cx="12.1" cy="26.2" r="3" transform="rotate(45 12 26.2)"/><circle opacity=".3" cx="19.1" cy="33.3" r="3" transform="rotate(45 19.1 33.3)"/></g></svg>