<svg width="145" height="31" fill="none" xmlns="http://www.w3.org/2000/svg"><path fill-rule="evenodd" clip-rule="evenodd" d="M15 15H0V0h15v15Zm130-1v-2h-3V8l-3 1v3h-5v-2l1-2h3V5h-2l-3 1-1 1-1 3v2h-2v2h2v11h3V14h5v7c0 3 1 4 4 4a6 6 0 0 0 2 0v-3h-3v-8h3Zm-23 8-3-1-1-3 1-3 3-1 2 1 1 3-1 3-2 1Zm-5-9 5-2 5 2 1 5-1 5-5 2-5-2c-2-1-2-3-2-5l2-5Zm-7-2-4 1-1 3v2l1 1 2 1 1 1h1v1c0 1 0 2-2 2l-1-1-2-1v3l1 1h2l4-1 2-3-1-2-3-2-2-1v-2h2a5 5 0 0 1 3 1v-3l-2-1h-1ZM94 21l3 1 2-1 1-3-1-3-2-1-3 1-1 3 1 3Zm3-10-5 2c-2 1-2 3-2 5s0 4 2 5l4 2 5-2c2-1 2-3 2-5l-1-5-5-2Zm-12 1v2l1-2 2-1h1l1 1v3h-1v-1h-1l-2 1-1 3v7h-3V12h3Zm-9-1-3 1-3 3a8 8 0 0 0 0 7l2 2 4 1 3-1v-3a6 6 0 0 1-3 1l-3-1-1-3 1-3 3-1 3 1v-3l-1-1h-2Zm-12 1h3v13h-3V12Zm2-6h-2v3l2 1 1-1V6h-1Zm-8 19V11l-6 14h-2l-6-14v14h-3V6h5l5 14 6-14h4v19h-3ZM16 15h15V0H16v15Zm-1 16H0V16h15v15Zm1 0h15V16H16v15Z" fill="#fff"/></svg>