<svg width="137" height="26" fill="none" xmlns="http://www.w3.org/2000/svg"><path fill-rule="evenodd" clip-rule="evenodd" d="M15 0v4-1c9 0 15 8 15 8s-7 8-14 8h-1v2h1c6 0 11-3 16-7l2 1 2 2a39 39 0 0 1-21 6v3h24V0H15Zm0 8V5c7 0 11 6 11 6s-5 6-10 6h-1v-7c2 0 2 1 4 3v1l3-3s-2-3-6-3h-1Zm0 0v2c-3-1-5 2-5 2s1 4 5 5v2c-6-1-8-8-8-8s3-3 8-3Zm0-3C8 6 4 11 4 11s3 9 11 10v2C4 22 0 11 0 11s7-7 15-7v1Zm31 0v17h5V9h4l2 1 1 4v8h5v-9c0-7-4-8-8-8h-9Zm38 0v17h5V5h-5Zm8 17V5h6c4 0 7 0 9 3l1 6-2 6c-1 1-2 2-7 2h-7Zm4-13h2c3 0 5 1 5 5 0 3-2 4-5 4h-2V9Zm-23 9 4-13h5l-6 17h-7L64 5h5l4 13Zm37 4h5V5h-5v17Zm7 0 7-17h6l7 17h-5l-1-3h-8l-1 3h-5Zm10-14 3 8h-6l3-8Z" fill="#fff"/></svg>