<svg width="131" height="17" fill="none" xmlns="http://www.w3.org/2000/svg"><path fill-rule="evenodd" clip-rule="evenodd" d="M57 11h8l-4-7-9 13h-4L59 1l2-1 2 1 10 16h-4l-2-3h-9l-1-3Zm39 3V0h-3v17h16l2-3H96ZM48 6c0 3-2 6-5 6h-2l7 5h-5L33 9h9c2 0 3-2 3-3 0-2-1-3-3-3H32v14h-4V0h15c3 0 5 3 5 6ZM8 17A8 8 0 1 1 8 0h10a8 8 0 1 1 0 17H8Zm15-8c0 3-2 5-5 5H9A5 5 0 1 1 9 3h9c3 0 5 3 5 6Zm57 8a8 8 0 1 1 0-17h11l-2 3h-9c-3 0-6 3-6 6s3 5 6 5h12l-2 3H80Zm34-7c1 2 3 4 5 4h12l-2 3h-10a8 8 0 1 1 0-17h12l-2 3h-10c-2 0-4 2-5 4h16l-2 3h-14Z" fill="#fff"/></svg>